<?xml version="1.0" ?><svg style="enable-background:new 0 0 64 64;" version="1.1" viewBox="0 0 64 64" xml:space="preserve" xmlns="http://www.w3.org/2000/svg" xmlns:xlink="http://www.w3.org/1999/xlink"><style type="text/css">
	.st0{fill:#231F20;}
	.st1{fill:none;stroke:#000000;stroke-width:2;stroke-linecap:round;stroke-linejoin:round;stroke-miterlimit:10;}
</style><g id="FB"/><g id="ig"><g><path class="st0" d="M50,63H14C6.8,63,1,57.2,1,50V14C1,6.8,6.8,1,14,1h36c7.2,0,13,5.8,13,13v36C63,57.2,57.2,63,50,63z M14,3    C7.9,3,3,7.9,3,14v36c0,6.1,4.9,11,11,11h36c6.1,0,11-4.9,11-11V14c0-6.1-4.9-11-11-11H14z"/></g><g><path class="st0" d="M32,48c-8.8,0-16-7.2-16-16s7.2-16,16-16s16,7.2,16,16S40.8,48,32,48z M32,18c-7.7,0-14,6.3-14,14    s6.3,14,14,14s14-6.3,14-14S39.7,18,32,18z"/></g><g><path class="st0" d="M50,17c-1.7,0-3-1.3-3-3s1.3-3,3-3s3,1.3,3,3S51.7,17,50,17z M50,13c-0.6,0-1,0.4-1,1s0.4,1,1,1s1-0.4,1-1    S50.6,13,50,13z"/></g></g><g id="yt"/><g id="twitter"/><g id="snapchat"/><g id="WA"/><g id="Pinterrest"/><g id="LinkedIn"/><g id="Messenger"/><g id="Tiktok"/><g id="VK"/><g id="Thumblr"/><g id="OK.ru"/><g id="Weibo"/></svg>